<svg width="402" height="140" viewBox="0 0 402 140" fill="none" xmlns="http://www.w3.org/2000/svg">
<path d="M38.4192 139.575C33.0472 139.575 27.6752 138.712 22.3033 136.985C18.2918 135.745 14.8626 134.2 12.0157 132.351C10.4772 131.351 10.049 129.348 10.8362 127.691L12.8656 123.418C13.9505 121.134 16.8697 120.419 19.1264 121.559C19.9522 121.976 20.8193 122.37 21.7277 122.74C24.3178 123.891 27.0517 124.754 29.9296 125.33C32.8074 126.001 35.6373 126.337 38.4192 126.337C43.6952 126.337 48.1079 125.474 51.6573 123.747C55.2066 122.02 57.8926 119.478 59.7152 116.121C61.5378 112.763 62.4492 108.591 62.4492 103.602V90.4475C62.4492 89.8504 63.1083 89.4886 63.6119 89.8091C63.8668 89.9714 64.0029 90.2701 63.9428 90.5661C63.3749 93.3664 61.8218 96.081 59.2835 98.71C56.6935 101.396 53.4319 103.602 49.4989 105.329C45.5658 107.056 41.5368 107.919 37.4119 107.919C30.2173 107.919 23.7902 106.24 18.1304 102.883C12.5666 99.4294 8.15388 94.7769 4.89233 88.9253C1.63078 82.9778 0 76.2148 0 68.6365C0 61.0582 1.58281 54.3432 4.74844 48.4916C8.00999 42.5441 12.4227 37.8916 17.9865 34.5341C23.6463 31.0807 29.9775 29.354 36.9803 29.354C39.8581 29.354 42.64 29.7377 45.326 30.5051C48.012 31.1766 50.5061 32.1839 52.8084 33.5268C55.1107 34.7739 57.1731 36.1649 58.9957 37.6997C60.8184 39.2346 62.3053 40.8653 63.4564 42.592C64.3085 43.8702 64.9241 45.0959 65.3031 46.2689C65.5259 46.9582 65.1154 47.666 64.4346 47.9135C63.4696 48.2645 62.4492 47.5498 62.4492 46.5228V34.9368C62.4492 32.7276 64.24 30.9368 66.4492 30.9368H73.27C75.4792 30.9368 77.27 32.7276 77.27 34.9368V101.876C77.27 107.919 76.3587 113.243 74.5361 117.848C72.8094 122.548 70.2673 126.481 66.9098 129.647C63.5523 132.908 59.4754 135.354 54.679 136.985C49.8826 138.712 44.4626 139.575 38.4192 139.575ZM38.9948 94.2493C43.6952 94.2493 47.8681 93.1461 51.5134 90.9398C55.1586 88.7334 57.9885 85.7117 60.003 81.8746C62.0175 78.0375 63.0247 73.6248 63.0247 68.6365C63.0247 63.6483 61.9695 59.2356 59.8591 55.3984C57.8446 51.4654 55.0147 48.3957 51.3695 46.1893C47.8201 43.983 43.6952 42.8798 38.9948 42.8798C34.3902 42.8798 30.2653 44.031 26.62 46.3332C23.0707 48.5396 20.2408 51.6093 18.1304 55.5423C16.1159 59.3795 15.1087 63.7442 15.1087 68.6365C15.1087 73.5288 16.1159 77.9415 18.1304 81.8746C20.2408 85.7117 23.0707 88.7334 26.62 90.9398C30.2653 93.1461 34.3902 94.2493 38.9948 94.2493Z" fill="black"/>
<path d="M90.8265 106.48C88.6173 106.48 86.8265 104.689 86.8265 102.48V3.99999C86.8265 1.79086 88.6173 0 90.8265 0H97.6474C99.8565 0 101.647 1.79086 101.647 4V102.48C101.647 104.689 99.8565 106.48 97.6474 106.48H90.8265Z" fill="black"/>
<path d="M197.346 106.48C195.28 106.48 193.605 104.805 193.605 102.739V34.9368C193.605 32.7276 195.395 30.9368 197.605 30.9368H204.425C206.635 30.9368 208.425 32.7276 208.425 34.9368V45.9654C208.425 46.2851 208.266 46.5836 208 46.761C207.259 47.2544 206.36 46.5734 206.717 45.7588C207.779 43.3414 209.355 41.0867 211.447 38.9947C214.229 36.1169 217.539 33.8146 221.376 32.0879C225.213 30.2653 229.146 29.354 233.175 29.354C238.931 29.354 243.727 30.5051 247.564 32.8074C251.401 35.0137 254.279 38.4192 256.198 43.0237C258.116 47.6283 259.075 53.4319 259.075 60.4347V102.48C259.075 104.689 257.285 106.48 255.075 106.48H248.255C246.045 106.48 244.255 104.689 244.255 102.48V61.4419C244.255 57.1251 243.679 53.5758 242.528 50.7939C241.377 47.916 239.602 45.8536 237.204 44.6065C234.806 43.2635 231.832 42.688 228.283 42.8798C225.405 42.8798 222.767 43.3595 220.368 44.3187C217.97 45.1821 215.86 46.4292 214.037 48.0599C212.311 49.6907 210.92 51.6093 209.864 53.8156C208.905 55.926 208.425 58.2283 208.425 60.7224V102.48C208.425 104.689 206.635 106.48 204.425 106.48H201.087C199.84 106.48 198.593 106.48 197.346 106.48Z" fill="black"/>
<path d="M299.758 107.919C292.755 107.919 286.472 106.192 280.908 102.739C275.44 99.2855 271.075 94.585 267.814 88.6375C264.648 82.69 263.065 76.023 263.065 68.6365C263.065 61.25 264.648 54.583 267.814 48.6355C271.075 42.688 275.44 37.9875 280.908 34.5341C286.472 31.0807 292.755 29.354 299.758 29.354C306.473 29.354 312.564 30.7449 318.032 33.5268C322.639 35.751 326.325 38.6659 329.091 42.2715C330.124 43.6186 329.977 45.4875 328.905 46.804L325.845 50.5613C324.166 52.6237 320.954 52.4997 319.015 50.6787C318.264 49.9728 317.456 49.2917 316.593 48.6355C314.195 46.8129 311.653 45.374 308.967 44.3187C306.281 43.2635 303.691 42.7359 301.196 42.7359C296.592 42.7359 292.467 43.8871 288.822 46.1893C285.272 48.3957 282.443 51.4654 280.332 55.3984C278.222 59.3315 277.166 63.7442 277.166 68.6365C277.166 73.5288 278.27 77.9415 280.476 81.8746C282.682 85.7117 285.608 88.7814 289.253 91.0837C292.899 93.3859 296.928 94.5371 301.34 94.5371C303.93 94.5371 306.425 94.1054 308.823 93.2421C311.317 92.3787 313.715 91.0837 316.017 89.357C317.1 88.545 318.151 87.6482 319.17 86.6665C321 84.9033 324.002 84.8796 325.607 86.8504L328.771 90.7364C329.907 92.1317 329.993 94.1341 328.797 95.4784C325.897 98.7375 322.117 101.493 317.456 103.746C311.797 106.528 305.897 107.919 299.758 107.919Z" fill="black"/>
<path d="M368.417 107.919C360.646 107.919 353.74 106.288 347.696 103.027C341.749 99.6692 337.048 95.1126 333.595 89.357C330.237 83.6013 328.558 76.9822 328.558 69.4999C328.558 63.5523 329.518 58.1324 331.436 53.2401C333.355 48.3477 335.993 44.1269 339.35 40.5776C342.804 36.9323 346.881 34.1504 351.581 32.2318C356.378 30.2173 361.558 29.2101 367.122 29.2101C372.014 29.2101 376.57 30.1694 380.791 32.0879C385.012 33.9106 388.657 36.4526 391.727 39.7142C394.893 42.9758 397.291 46.8608 398.922 51.3695C400.648 55.7821 401.464 60.6265 401.368 65.9026L401.313 68.3247C401.263 70.4979 399.488 72.2338 397.314 72.2338H342.527C340.734 72.2338 339.16 71.0405 338.675 69.3141L337.61 65.5149C336.894 62.9639 338.812 60.4347 341.461 60.4347H386.93C387.508 60.4347 387.816 61.1165 387.434 61.5498C387.024 62.0135 386.259 61.7241 386.259 61.1058V59.4274C385.971 56.2618 384.916 53.4319 383.094 50.9378C381.271 48.4437 378.969 46.4771 376.187 45.0382C373.405 43.5993 370.383 42.8798 367.122 42.8798C361.941 42.8798 357.577 43.8871 354.027 45.9016C350.478 47.8201 347.792 50.698 345.969 54.5351C344.147 58.2763 343.235 62.9288 343.235 68.4926C343.235 73.7687 344.339 78.3732 346.545 82.3063C348.751 86.1434 351.869 89.1171 355.898 91.2276C359.927 93.338 364.579 94.3932 369.855 94.3932C373.597 94.3932 377.05 93.7697 380.216 92.5226C382.458 91.6654 384.813 90.3323 387.281 88.5233C389.188 87.126 391.909 87.4285 393.28 89.3538L396.239 93.5075C397.372 95.0985 397.205 97.2974 395.674 98.51C393.917 99.9013 391.93 101.167 389.713 102.307C386.451 104.034 382.95 105.425 379.208 106.48C375.563 107.439 371.966 107.919 368.417 107.919Z" fill="black"/>
<path d="M113.784 106.48C112.024 106.48 110.766 104.778 111.282 103.095L139.105 12.308C139.621 10.6275 141.172 9.4801 142.93 9.4801H155.978C157.756 9.4801 159.321 10.6539 159.818 12.361L186.266 103.122C186.755 104.801 185.496 106.48 183.746 106.48C182.631 106.48 181.637 105.775 181.269 104.721L153.407 24.9646C152.171 21.4265 147.184 21.3785 145.881 24.8922L116.239 104.773C115.858 105.799 114.879 106.48 113.784 106.48Z" fill="black"/>
<path fill-rule="evenodd" clip-rule="evenodd" d="M150.432 13.0094V13.0104C150.432 13.0112 150.432 13.0127 150.433 13.0143C150.434 13.0175 150.435 13.0226 150.437 13.0289C150.44 13.0418 150.445 13.0611 150.452 13.0865C150.466 13.1378 150.487 13.2144 150.515 13.3151C150.57 13.5165 150.652 13.815 150.758 14.2037C150.971 14.9814 151.282 16.1202 151.677 17.5641C152.467 20.4521 153.591 24.5617 154.926 29.4459C157.596 39.2134 161.113 52.0808 164.5 64.4821L164.501 64.484C164.502 64.4876 164.503 64.4935 164.505 64.5006C164.509 64.5154 164.516 64.5384 164.525 64.568C164.541 64.6271 164.566 64.7153 164.599 64.8307C164.665 65.0621 164.763 65.4035 164.89 65.8414C165.144 66.7173 165.517 67.9801 165.987 69.524C166.926 72.6126 168.255 76.8243 169.814 81.3199C171.373 85.818 173.158 90.5887 175.009 94.7985C176.869 99.0297 178.763 102.617 180.523 104.801C180.869 105.231 180.801 105.861 180.371 106.208C179.941 106.554 179.311 106.485 178.965 106.055C177.03 103.652 175.049 99.8601 173.178 95.6041C171.297 91.3263 169.493 86.5 167.924 81.9752C166.355 77.4484 165.017 73.2112 164.072 70.1061C163.6 68.5532 163.226 67.2819 162.969 66.399C162.841 65.9578 162.742 65.613 162.675 65.3785C162.642 65.2615 162.617 65.1715 162.6 65.111C162.591 65.0809 162.585 65.0581 162.58 65.0426C162.578 65.0352 162.577 65.029 162.575 65.025C162.575 65.0231 162.574 65.0212 162.573 65.0201V65.0192C162.573 65.0189 162.573 65.0181 163.536 64.7487L162.573 65.0182L162.572 65.0123C159.185 52.6102 155.667 39.7415 152.996 29.9733C152.943 29.7773 152.889 29.5827 152.836 29.3893C153.939 35.9606 155.457 44.3419 157.347 53.2028C159.468 63.1512 162.054 73.6878 165.039 82.9401C168.035 92.2227 171.399 100.102 175.036 104.818C175.373 105.255 175.292 105.883 174.855 106.22C174.417 106.557 173.79 106.476 173.452 106.039C169.59 101.03 166.141 92.8664 163.136 83.5543C160.121 74.2119 157.519 63.6022 155.391 53.6197C153.262 43.6343 151.603 34.2602 150.476 27.3834C150.127 25.2525 149.831 23.3604 149.586 21.7643C149.223 23.5175 148.782 25.631 148.27 28.027C146.73 35.2305 144.566 44.9955 142.069 55.2379C139.571 65.478 136.738 76.2086 133.858 85.3375C130.992 94.42 128.041 102.056 125.275 106.003C124.958 106.455 124.333 106.565 123.881 106.248C123.429 105.931 123.319 105.306 123.636 104.854C126.2 101.196 129.075 93.8496 131.95 84.735C134.811 75.6667 137.633 64.9851 140.125 54.7643C142.471 45.1462 144.521 35.9468 146.035 28.902L135.705 65.024L135.701 65.0387L135.697 65.0533C132.766 74.2138 130.241 82.6486 127.776 89.6529C125.316 96.64 122.867 102.354 120.037 106.038C119.701 106.476 119.073 106.558 118.635 106.221C118.197 105.885 118.115 105.257 118.451 104.819C121.067 101.413 123.43 95.975 125.889 88.9889C128.339 82.0274 130.839 73.6774 133.782 64.4742L148.505 12.9977L149.489 9.56116L150.432 13.0094Z" fill="black"/>
<path d="M30.7443 57.4801C34.3342 57.4801 37.2443 62.6288 37.2443 68.9801C37.2443 75.3314 34.3342 80.4801 30.7443 80.4801C27.1545 80.4801 24.2443 75.3314 24.2443 68.9801C24.2443 62.6288 27.1545 57.4801 30.7443 57.4801ZM32.2443 62.4801C31.1398 62.4801 30.2443 63.8232 30.2443 65.4801C30.2443 67.137 31.1398 68.4801 32.2443 68.4801C33.3489 68.4801 34.2443 67.137 34.2443 65.4801C34.2443 63.8232 33.3489 62.4801 32.2443 62.4801Z" fill="black"/>
<path d="M49.7443 57.4801C53.3342 57.4801 56.2443 62.6288 56.2443 68.9801C56.2443 75.3314 53.3342 80.4801 49.7443 80.4801C46.1545 80.4801 43.2443 75.3314 43.2443 68.9801C43.2443 62.6288 46.1545 57.4801 49.7443 57.4801ZM51.2443 62.4801C50.1398 62.4801 49.2443 63.8232 49.2443 65.4801C49.2443 67.137 50.1398 68.4801 51.2443 68.4801C52.3489 68.4801 53.2443 67.137 53.2443 65.4801C53.2443 63.8232 52.3489 62.4801 51.2443 62.4801Z" fill="black"/>
</svg>
