<svg width="32" height="32" viewBox="0 0 32 32" fill="none" xmlns="http://www.w3.org/2000/svg">
<rect width="32" height="32" rx="6.5" fill="url(#paint0_linear_28_79)"/>
<path d="M15.4637 22.0438C14.5599 22.0438 13.6561 21.8985 12.7523 21.608C12.1765 21.43 11.672 21.2147 11.2388 20.962C10.8426 20.7309 10.7358 20.228 10.9326 19.8137L10.9929 19.6867C11.2641 19.1158 11.9985 18.9345 12.5809 19.1804C12.6056 19.1908 12.6304 19.2012 12.6555 19.2114C13.0912 19.405 13.5512 19.5503 14.0354 19.6471C14.5196 19.7601 14.9957 19.8166 15.4637 19.8166C16.3513 19.8166 17.0937 19.6713 17.6909 19.3808C18.288 19.0903 18.7399 18.6626 19.0466 18.0978C19.3532 17.5329 19.5065 16.8309 19.5065 15.9916V13.7784C19.5065 13.678 19.6174 13.6171 19.7021 13.671C19.745 13.6983 19.7679 13.7486 19.7578 13.7984C19.6623 14.2695 19.401 14.7262 18.9739 15.1685C18.5382 15.6204 17.9894 15.9916 17.3277 16.2821C16.666 16.5726 15.9882 16.7179 15.2942 16.7179C14.0838 16.7179 13.0025 16.4354 12.0503 15.8706C11.1142 15.2896 10.3718 14.5068 9.82309 13.5223C9.27436 12.5217 9 11.3839 9 10.1089C9 8.83395 9.26629 7.70422 9.79888 6.71974C10.3476 5.71912 11.09 4.93637 12.0261 4.37151C12.9783 3.7905 14.0435 3.5 15.2216 3.5C15.7058 3.5 16.1738 3.56456 16.6257 3.69367C17.0776 3.80664 17.4972 3.9761 17.8845 4.20205C18.2719 4.41186 18.6189 4.64587 18.9255 4.9041C19.2322 5.16232 19.4823 5.43668 19.676 5.72719C19.8193 5.94223 19.9229 6.14843 19.9867 6.34579C20.0241 6.46175 19.9551 6.58083 19.8406 6.62248C19.6782 6.68152 19.5065 6.56128 19.5065 6.38851V4.76629C19.5065 4.21401 19.9542 3.76629 20.5065 3.76629H21C21.5523 3.76629 22 4.21401 22 4.76629V15.7011C22 16.7179 21.8467 17.6136 21.54 18.3883C21.2495 19.1791 20.8218 19.8408 20.257 20.3734C19.6921 20.9221 19.0062 21.3336 18.1993 21.608C17.3923 21.8985 16.4804 22.0438 15.4637 22.0438ZM15.5605 14.4181C16.3513 14.4181 17.0534 14.2325 17.6667 13.8613C18.28 13.4901 18.7561 12.9817 19.095 12.3361C19.4339 11.6906 19.6034 10.9482 19.6034 10.1089C19.6034 9.26971 19.4258 8.52731 19.0708 7.88175C18.7318 7.22005 18.2557 6.7036 17.6425 6.3324C17.0453 5.9612 16.3513 5.7756 15.5605 5.7756C14.7858 5.7756 14.0919 5.96927 13.4786 6.35661C12.8814 6.72781 12.4053 7.24426 12.0503 7.90596C11.7114 8.55152 11.5419 9.28585 11.5419 10.1089C11.5419 10.932 11.7114 11.6744 12.0503 12.3361C12.4053 12.9817 12.8814 13.4901 13.4786 13.8613C14.0919 14.2325 14.7858 14.4181 15.5605 14.4181Z" fill="black"/>
<path d="M14.1726 8.23193C14.7765 8.23211 15.2663 9.09816 15.2664 10.1665C15.2664 11.2349 14.7765 12.1009 14.1726 12.1011C13.5687 12.1011 13.0789 11.235 13.0789 10.1665C13.079 9.09805 13.5687 8.23193 14.1726 8.23193ZM14.4246 9.07275C14.2389 9.07294 14.0888 9.29912 14.0887 9.57764C14.0887 9.85627 14.2389 10.0823 14.4246 10.0825C14.6104 10.0825 14.7615 9.85639 14.7615 9.57764C14.7614 9.29901 14.6104 9.07275 14.4246 9.07275Z" fill="black"/>
<path d="M17.3692 8.23193C17.9731 8.23211 18.4629 9.09816 18.463 10.1665C18.463 11.2349 17.9731 12.1009 17.3692 12.1011C16.7653 12.1011 16.2755 11.235 16.2755 10.1665C16.2755 9.09805 16.7653 8.23193 17.3692 8.23193ZM17.6212 9.07275C17.4355 9.07294 17.2853 9.29912 17.2852 9.57764C17.2852 9.85627 17.4354 10.0823 17.6212 10.0825C17.807 10.0825 17.9581 9.85639 17.9581 9.57764C17.958 9.29901 17.807 9.07275 17.6212 9.07275Z" fill="black"/>
<path d="M4.65675 22.25C4.17479 22.25 3.99181 22.8796 4.3987 23.138L12.5996 28.3442C12.7598 28.446 12.9457 28.5 13.1356 28.5H18.8361C19.0337 28.5 19.227 28.4414 19.3914 28.3317L27.1313 23.1639C27.5417 22.8899 27.3477 22.25 26.8542 22.25C26.7693 22.25 26.6857 22.2717 26.6115 22.313L17.2403 27.5323L16.5534 27.9148C16.2587 28.0789 15.9012 28.0835 15.6025 27.9268L4.88033 22.3051C4.81135 22.2689 4.73463 22.25 4.65675 22.25Z" fill="black"/>
<path d="M16.142 27.9226L16.144 27.9207C16.1455 27.9188 16.1485 27.9158 16.1518 27.9119C16.1585 27.904 16.1684 27.8917 16.1821 27.8757C16.2096 27.8438 16.2517 27.7956 16.3071 27.7341C16.4178 27.6113 16.5832 27.4333 16.8002 27.2156C17.2351 26.7795 17.8773 26.1839 18.7006 25.5496C20.3488 24.2797 22.7169 22.8612 25.6098 22.2449C25.7448 22.2161 25.8309 22.083 25.8022 21.948C25.7734 21.813 25.6403 21.7269 25.5053 21.7556C22.5161 22.3925 20.0802 23.8556 18.395 25.1541C17.5517 25.8038 16.8942 26.4144 16.4467 26.863C16.223 27.0874 16.0509 27.2715 15.935 27.4001C15.9297 27.4061 15.9245 27.412 15.9194 27.4177C15.8982 27.4006 15.8756 27.3808 15.851 27.3611C15.6847 27.2274 15.443 27.0354 15.1401 26.8025C14.5339 26.3364 13.6814 25.7045 12.6977 25.0417C10.7386 23.7219 8.22627 22.2577 6.08834 21.7566C5.95412 21.7255 5.82003 21.8089 5.78853 21.9431C5.7571 22.0775 5.84076 22.2123 5.97505 22.2439C8.01719 22.7227 10.464 24.1401 12.4184 25.4568C13.3914 26.1123 14.2352 26.7376 14.8354 27.199C15.1353 27.4295 15.3748 27.6191 15.5385 27.7507C15.6201 27.8163 15.6826 27.8683 15.7251 27.9031C15.7462 27.9204 15.7632 27.9333 15.7739 27.9421C15.779 27.9464 15.783 27.9497 15.7856 27.9519C15.7868 27.9529 15.7879 27.9542 15.7885 27.9548H15.7895L15.9819 28.116L16.142 27.9226Z" fill="black"/>
<defs>
<linearGradient id="paint0_linear_28_79" x1="29" y1="2.875" x2="1.5" y2="32.625" gradientUnits="userSpaceOnUse">
<stop stop-color="#FFFF00"/>
</linearGradient>
</defs>
</svg>
